<?xml version="1.0"?>
<svg xmlns="http://www.w3.org/2000/svg" xmlns:xlink="http://www.w3.org/1999/xlink" version="1.1" id="Capa_1" x="0px" y="0px" viewBox="0 0 60 60" style="enable-background:new 0 0 60 60;" xml:space="preserve" width="512px" height="512px" class=""><g><g>
	<path d="M30,0C13.458,0,0,13.458,0,30s13.458,30,30,30s30-13.458,30-30S46.542,0,30,0z M30,58C14.561,58,2,45.439,2,30   S14.561,2,30,2s28,12.561,28,28S45.439,58,30,58z" data-original="#000000" class="active-path" data-old_color="#ffffff" fill="#ffffff"/>
	<path d="M30,6c-0.552,0-1,0.447-1,1v23H14c-0.552,0-1,0.447-1,1s0.448,1,1,1h16c0.552,0,1-0.447,1-1V7C31,6.447,30.552,6,30,6z" data-original="#000000" class="active-path" data-old_color="#ffffff" fill="#ffffff"/>
</g><style id="stylish-6" class="stylish active-path" type="text/css" style="fill:#FFFFFF" data-old_color="#ffffff">@namespace url(http://www.w3.org/1999/xhtml);
.new_post_label{

font-size:10px !important;
padding-top:70px !important;
font-family:georgia !important;
font-style:bold !important;
text-transform: uppercase !important;
color:#222 !important;
letter-spacing:1px !important
}</style><style id="stylish-16" class="stylish active-path" type="text/css" style="fill:#FFFFFF" data-old_color="#ffffff">@namespace url(http://www.w3.org/1999/xhtml);
.new_post_label{

font-size:10px !important;
padding-top:70px !important;
font-family:georgia !important;
font-style:bold !important;
text-transform: uppercase !important;
color:#222 !important;
letter-spacing:1px !important
}</style><style id="stylish-26" class="stylish active-path" type="text/css" style="fill:#FFFFFF" data-old_color="#ffffff">@namespace url(http://www.w3.org/1999/xhtml);
.new_post_label{

font-size:10px !important;
padding-top:70px !important;
font-family:georgia !important;
font-style:bold !important;
text-transform: uppercase !important;
color:#222 !important;
letter-spacing:1px !important
}</style></g> </svg>
